<!-- <?xml version="1.0" standalone="no"?>
<!DOCTYPE svg PUBLIC "-//W3C//DTD SVG 20010904//EN"
 "http://www.w3.org/TR/2001/REC-SVG-20010904/DTD/svg10.dtd"> -->
<svg version="1.0" xmlns="http://www.w3.org/2000/svg"
 width="59.000000pt" height="106.000000pt" viewBox="0 0 59.000000 106.000000"
 preserveAspectRatio="xMidYMid meet">

<g transform="translate(0.000000,106.000000) scale(0.100000,-0.100000)"
fill="#000000" stroke="none">
<path d="M0 530 l0 -530 295 0 295 0 0 530 0 530 -295 0 -295 0 0 -530z m530
415 l0 -55 -160 0 -160 0 0 -50 0 -50 160 0 160 0 0 -110 0 -110 -161 0 -160
0 3 -47 3 -48 158 0 157 0 0 -107 0 -108 -160 0 -160 0 0 -50 0 -50 160 0 160
0 0 -50 0 -50 -235 0 -235 0 0 130 0 130 165 0 165 0 0 50 0 50 -165 0 -165 0
0 105 0 105 165 0 165 0 0 50 0 50 -165 0 -165 0 0 135 0 135 235 0 235 0 0
-55z"/>
</g>
</svg>
